<?xml version="1.0" standalone="no"?>
<!DOCTYPE svg PUBLIC "-//W3C//DTD SVG 20010904//EN"
 "http://www.w3.org/TR/2001/REC-SVG-20010904/DTD/svg10.dtd">
<svg version="1.0" xmlns="http://www.w3.org/2000/svg"
 width="227.000000pt" height="222.000000pt" viewBox="0 0 227.000000 222.000000"
 preserveAspectRatio="xMidYMid meet">
<metadata>
Created by potrace 1.10, written by Peter Selinger 2001-2011
</metadata>
<g transform="translate(0.000000,222.000000) scale(0.100000,-0.100000)"
fill="#000000" stroke="none">
<path d="M840 1985 c-145 -36 -257 -102 -361 -212 -77 -81 -128 -169 -159
-270 -17 -57 -26 -73 -41 -73 -49 0 -77 -75 -40 -107 15 -12 17 -21 10 -37 -6
-13 -7 -41 -2 -71 l8 -50 870 0 870 0 3 68 3 67 -36 0 c-41 0 -60 -8 -121 -55
-24 -18 -56 -36 -73 -40 -34 -7 -94 15 -131 49 -61 57 -108 60 -176 11 -79
-57 -112 -69 -155 -56 -21 6 -56 27 -78 45 -36 30 -45 33 -76 26 -19 -4 -37
-4 -40 0 -3 5 7 11 22 13 16 2 8 3 -16 1 -29 -3 -56 -13 -79 -32 -65 -51 -73
-55 -117 -54 -37 0 -55 8 -106 46 -66 50 -117 60 -155 31 -17 -13 -16 -14 14
-4 34 12 102 4 102 -10 0 -5 -10 -9 -22 -9 -13 0 -47 -3 -76 -6 -41 -5 -52 -4
-46 6 4 6 -11 -3 -34 -22 -34 -27 -51 -33 -86 -33 -45 0 -53 4 -119 56 -22 17
-54 31 -82 35 -25 4 -44 10 -43 13 2 4 -5 16 -15 27 -16 17 -16 21 -2 32 12
10 15 10 15 0 0 -10 4 -10 16 1 13 10 17 10 25 -2 5 -8 9 -9 9 -4 0 12 412 19
1030 17 648 -2 721 -6 661 -44 -27 -16 -27 -28 -1 -28 46 0 51 91 6 111 -16 8
-26 26 -36 61 -19 77 -83 196 -142 266 -93 109 -215 188 -354 228 -80 24 -559
30 -644 9z m461 -56 c11 -69 -6 -190 -36 -256 -38 -85 -95 -153 -175 -210
l-45 -33 468 0 c431 0 471 -1 491 -17 21 -17 -18 -18 -871 -19 -491 0 -888 3
-881 8 7 4 21 8 31 8 9 0 17 5 17 10 0 6 131 10 372 10 204 0 369 2 366 5 -3
3 -163 5 -356 5 -402 0 -370 -9 -329 96 35 88 66 138 131 210 53 59 186 164
209 164 5 0 23 6 40 14 103 45 161 54 367 56 96 0 176 3 179 6 8 8 14 -6 22
-57z m201 16 c71 -21 166 -69 208 -105 19 -17 46 -41 60 -53 32 -28 110 -121
110 -131 0 -4 9 -20 19 -35 17 -23 61 -141 61 -163 0 -4 -192 -8 -426 -8
l-427 0 62 63 c83 84 127 173 139 287 6 47 8 103 7 125 -2 22 -2 42 0 46 6 8
128 -8 187 -26z m-1126 -681 c21 -15 52 -37 67 -50 35 -30 90 -31 134 -4 33
19 129 40 190 40 19 0 52 -13 80 -30 69 -44 118 -39 184 18 31 26 40 28 101
27 60 -2 72 -6 118 -40 45 -33 56 -37 95 -33 24 3 56 15 73 26 29 21 80 23
202 7 32 -4 33 -4 10 6 -21 9 -77 16 -142 18 -46 2 10 41 58 41 32 0 60 -14
106 -56 43 -39 75 -49 121 -40 53 11 109 14 160 9 151 -17 -44 -22 -803 -22
-467 0 -850 1 -850 3 0 3 -3 11 -6 20 -5 13 2 15 48 11 l53 -4 -54 10 c-30 5
-56 11 -58 13 -2 2 -1 15 3 30 5 21 12 26 39 26 18 0 49 -11 71 -26z m1604 7
c0 -11 3 -26 6 -35 5 -14 -5 -16 -71 -16 -71 0 -76 1 -64 17 41 48 129 72 129
34z"/>
<path d="M800 1914 c0 -3 12 -9 26 -14 24 -10 26 -14 22 -55 -9 -80 -113 -177
-216 -205 -55 -14 -92 5 -92 48 0 66 110 178 203 208 23 7 33 13 22 13 -64 -1
-178 -82 -213 -151 -48 -97 -11 -150 86 -126 57 14 82 29 146 88 71 66 99 149
60 181 -16 13 -44 21 -44 13z"/>
<path d="M393 1213 c9 -9 20 -13 24 -9 4 4 1 11 -7 16 -25 16 -35 11 -17 -7z"/>
<path d="M261 1131 c-36 -66 21 -138 79 -101 12 7 8 10 -15 10 -39 0 -57 27
-45 69 10 36 -4 51 -19 22z"/>
<path d="M1990 1141 c0 -5 6 -14 14 -20 8 -7 13 -19 12 -29 -2 -12 -13 -16
-47 -16 -40 1 -40 0 -6 -3 44 -5 49 -21 7 -29 -34 -7 -31 -24 5 -24 33 0 68
47 60 80 -7 28 -23 50 -36 50 -5 0 -9 -4 -9 -9z"/>
<path d="M1053 1113 c9 -2 23 -2 30 0 6 3 -1 5 -18 5 -16 0 -22 -2 -12 -5z"/>
<path d="M348 1103 c34 -2 90 -2 125 0 34 2 6 3 -63 3 -69 0 -97 -1 -62 -3z"/>
<path d="M578 1103 c7 -3 16 -2 19 1 4 3 -2 6 -13 5 -11 0 -14 -3 -6 -6z"/>
<path d="M923 1103 c9 -2 23 -2 30 0 6 3 -1 5 -18 5 -16 0 -22 -2 -12 -5z"/>
<path d="M983 1103 c9 -2 23 -2 30 0 6 3 -1 5 -18 5 -16 0 -22 -2 -12 -5z"/>
<path d="M1748 1073 c6 -2 18 -2 25 0 6 3 1 5 -13 5 -14 0 -19 -2 -12 -5z"/>
<path d="M1490 1030 c-12 -8 -11 -10 5 -10 12 0 52 -31 95 -76 72 -72 136
-123 100 -79 -23 29 -174 175 -180 175 -3 0 -12 -5 -20 -10z"/>
<path d="M888 1010 l-576 -5 -26 -24 c-35 -33 -44 -73 -37 -161 8 -89 19 -112
65 -134 31 -14 115 -16 828 -16 735 0 796 1 828 18 55 27 72 71 67 171 -3 82
-4 85 -40 117 -30 28 -45 34 -80 34 -40 0 -47 -5 -137 -95 -52 -52 -100 -95
-106 -95 -6 0 -55 44 -110 98 l-99 97 -577 -5z m-393 -24 c40 -21 559 -20 576
0 16 20 381 20 398 1 6 -8 7 -18 3 -22 -4 -5 -2 -5 4 -2 6 3 32 -16 58 -42 33
-34 44 -50 34 -54 -9 -4 -7 -6 5 -6 9 -1 17 -6 17 -13 0 -6 3 -8 7 -5 3 4 17
-2 29 -14 18 -17 30 -20 56 -15 18 3 38 7 45 8 7 1 11 6 10 12 -1 6 4 10 11 8
8 -1 11 2 7 9 -10 15 124 149 148 149 29 0 87 -31 87 -46 0 -8 4 -14 9 -14 9
0 21 -67 13 -74 -2 -3 -4 -34 -5 -69 -1 -36 -5 -68 -8 -72 -4 -3 -161 -1 -350
6 -226 8 -488 9 -764 4 -231 -4 -451 -8 -490 -9 -38 0 -83 3 -98 7 -28 8 -29
10 -27 65 1 31 1 62 0 67 -10 43 17 97 59 120 34 19 131 19 166 1z m437 7
c-78 -2 -206 -2 -285 0 -78 1 -14 3 143 3 157 0 221 -2 142 -3z m783 -273 c50
0 108 -4 130 -9 34 -8 -268 -10 -1448 -13 -32 0 -63 4 -68 9 -5 5 7 7 29 5 20
-1 93 2 162 7 104 7 424 8 1195 1z"/>
<path d="M1353 863 c37 -2 97 -2 135 0 37 2 6 3 -68 3 -74 0 -105 -1 -67 -3z"/>
<path d="M1168 853 c12 -2 32 -2 45 0 12 2 2 4 -23 4 -25 0 -35 -2 -22 -4z"/>
<path d="M1073 843 c9 -2 25 -2 35 0 9 3 1 5 -18 5 -19 0 -27 -2 -17 -5z"/>
<path d="M978 833 c12 -2 30 -2 40 0 9 3 -1 5 -23 4 -22 0 -30 -2 -17 -4z"/>
<path d="M893 823 c9 -2 25 -2 35 0 9 3 1 5 -18 5 -19 0 -27 -2 -17 -5z"/>
<path d="M398 813 c7 -3 16 -2 19 1 4 3 -2 6 -13 5 -11 0 -14 -3 -6 -6z"/>
<path d="M788 813 c7 -3 16 -2 19 1 4 3 -2 6 -13 5 -11 0 -14 -3 -6 -6z"/>
<path d="M513 803 c43 -2 110 -2 150 0 40 1 5 3 -78 3 -82 0 -115 -2 -72 -3z"/>
<path d="M250 598 c0 -22 7 -41 20 -53 27 -25 35 -14 9 13 -13 15 -18 29 -14
42 6 19 17 20 693 14 378 -3 767 -6 865 -7 97 -2 177 1 177 5 0 5 -208 8 -462
8 -255 0 -649 3 -875 7 l-413 6 0 -35z"/>
<path d="M2014 596 c3 -14 2 -28 -4 -31 -12 -8 -13 -25 -1 -25 11 0 33 59 25
71 -11 19 -26 8 -20 -15z"/>
<path d="M305 498 c12 -38 55 -113 81 -142 57 -60 169 -108 288 -123 80 -10
885 -10 955 0 179 25 285 87 340 199 17 33 31 67 31 75 0 11 -146 13 -851 13
l-850 0 6 -22z m1661 -11 c14 -14 -53 -112 -101 -147 -43 -32 -123 -66 -132
-56 -2 2 3 27 11 57 9 34 10 58 4 64 -6 6 -248 10 -681 11 -370 1 -679 2 -688
3 -12 1 -49 57 -49 75 0 6 1630 -1 1636 -7z m-231 -132 c-26 -87 -31 -91 -148
-104 -62 -7 -242 -11 -448 -10 -525 2 -619 20 -763 150 -6 5 298 9 682 9 l691
0 -14 -45z"/>
</g>
</svg>
